<mxfile host="app.diagrams.net" agent="Mozilla/5.0 (Windows NT 10.0; Win64; x64) AppleWebKit/537.36 (KHTML, like Gecko) Chrome/135.0.0.0 Safari/537.36" version="26.2.10">
  <diagram name="Page-1" id="e7e014a7-5840-1c2e-5031-d8a46d1fe8dd">
    <mxGraphModel dx="1360" dy="748" grid="1" gridSize="10" guides="1" tooltips="1" connect="1" arrows="1" fold="1" page="1" pageScale="1" pageWidth="1169" pageHeight="826" background="none" math="0" shadow="0">
      <root>
        <mxCell id="0" />
        <mxCell id="1" parent="0" />
        <mxCell id="7nI64X__2j-Hu28zdMV8-127" value="" style="rounded=1;whiteSpace=wrap;html=1;" vertex="1" parent="1">
          <mxGeometry x="69" y="20" width="1030" height="1580" as="geometry" />
        </mxCell>
        <mxCell id="2" value="Nullpointer Software GmbH" style="swimlane;whiteSpace=wrap" parent="1" vertex="1">
          <mxGeometry x="150" y="130" width="740" height="1380" as="geometry" />
        </mxCell>
        <mxCell id="3" value="Requirements Engineer" style="swimlane;whiteSpace=wrap" parent="2" vertex="1">
          <mxGeometry y="22" width="160" height="1358" as="geometry" />
        </mxCell>
        <mxCell id="7nI64X__2j-Hu28zdMV8-50" value="" style="edgeStyle=orthogonalEdgeStyle;rounded=0;orthogonalLoop=1;jettySize=auto;html=1;exitX=0.483;exitY=0.733;exitDx=0;exitDy=0;exitPerimeter=0;endArrow=open;endFill=0;" edge="1" parent="3" source="5" target="7nI64X__2j-Hu28zdMV8-49">
          <mxGeometry relative="1" as="geometry" />
        </mxCell>
        <mxCell id="5" value="" style="ellipse;shape=startState;fillColor=#000000;strokeColor=none;" parent="3" vertex="1">
          <mxGeometry x="65" y="40" width="30" height="30" as="geometry" />
        </mxCell>
        <mxCell id="7nI64X__2j-Hu28zdMV8-99" style="edgeStyle=orthogonalEdgeStyle;rounded=0;orthogonalLoop=1;jettySize=auto;html=1;exitX=0.5;exitY=1;exitDx=0;exitDy=0;entryX=0.5;entryY=0;entryDx=0;entryDy=0;endArrow=open;endFill=0;" edge="1" parent="3" source="7nI64X__2j-Hu28zdMV8-49" target="7nI64X__2j-Hu28zdMV8-51">
          <mxGeometry relative="1" as="geometry" />
        </mxCell>
        <mxCell id="7nI64X__2j-Hu28zdMV8-49" value="Fachkonzept erstellen" style="rounded=1;whiteSpace=wrap;html=1;" vertex="1" parent="3">
          <mxGeometry x="20" y="110" width="120" height="60" as="geometry" />
        </mxCell>
        <mxCell id="7nI64X__2j-Hu28zdMV8-51" value="Fachkonzept" style="rounded=0;whiteSpace=wrap;html=1;" vertex="1" parent="3">
          <mxGeometry x="20" y="208" width="120" height="60" as="geometry" />
        </mxCell>
        <mxCell id="7nI64X__2j-Hu28zdMV8-116" style="edgeStyle=orthogonalEdgeStyle;rounded=0;orthogonalLoop=1;jettySize=auto;html=1;entryX=0.5;entryY=1;entryDx=0;entryDy=0;endArrow=open;endFill=0;" edge="1" parent="3" source="7nI64X__2j-Hu28zdMV8-114" target="7nI64X__2j-Hu28zdMV8-51">
          <mxGeometry relative="1" as="geometry" />
        </mxCell>
        <mxCell id="7nI64X__2j-Hu28zdMV8-114" value="Fachkonzept 端berarbeiten" style="rounded=1;whiteSpace=wrap;html=1;" vertex="1" parent="3">
          <mxGeometry x="20" y="328" width="120" height="60" as="geometry" />
        </mxCell>
        <mxCell id="7nI64X__2j-Hu28zdMV8-117" value="Fachkonzept 端berarbeiten" style="rounded=1;whiteSpace=wrap;html=1;" vertex="1" parent="3">
          <mxGeometry x="20" y="878" width="120" height="60" as="geometry" />
        </mxCell>
        <mxCell id="4" value="Project Management Office" style="swimlane;whiteSpace=wrap" parent="2" vertex="1">
          <mxGeometry x="160" y="22" width="190" height="1358" as="geometry" />
        </mxCell>
        <mxCell id="7nI64X__2j-Hu28zdMV8-61" value="" style="edgeStyle=orthogonalEdgeStyle;rounded=0;orthogonalLoop=1;jettySize=auto;html=1;entryX=0.5;entryY=0;entryDx=0;entryDy=0;endArrow=open;endFill=0;" edge="1" parent="4" source="7nI64X__2j-Hu28zdMV8-52" target="7nI64X__2j-Hu28zdMV8-62">
          <mxGeometry relative="1" as="geometry">
            <mxPoint x="95" y="208" as="targetPoint" />
          </mxGeometry>
        </mxCell>
        <mxCell id="7nI64X__2j-Hu28zdMV8-52" value="Fachkonzept 端berarbeiten" style="rounded=1;whiteSpace=wrap;html=1;" vertex="1" parent="4">
          <mxGeometry x="35" y="110" width="120" height="60" as="geometry" />
        </mxCell>
        <mxCell id="7nI64X__2j-Hu28zdMV8-64" value="" style="edgeStyle=orthogonalEdgeStyle;rounded=0;orthogonalLoop=1;jettySize=auto;html=1;endArrow=open;endFill=0;" edge="1" parent="4" source="7nI64X__2j-Hu28zdMV8-62" target="7nI64X__2j-Hu28zdMV8-63">
          <mxGeometry relative="1" as="geometry" />
        </mxCell>
        <mxCell id="7nI64X__2j-Hu28zdMV8-62" value="Stakeholder benachrichtigen" style="rounded=1;whiteSpace=wrap;html=1;" vertex="1" parent="4">
          <mxGeometry x="35" y="208" width="120" height="60" as="geometry" />
        </mxCell>
        <mxCell id="7nI64X__2j-Hu28zdMV8-63" value="" style="line;strokeWidth=4;html=1;perimeter=backbonePerimeter;points=[];outlineConnect=0;" vertex="1" parent="4">
          <mxGeometry x="22.5" y="308" width="145" height="10" as="geometry" />
        </mxCell>
        <mxCell id="7nI64X__2j-Hu28zdMV8-105" style="edgeStyle=orthogonalEdgeStyle;rounded=0;orthogonalLoop=1;jettySize=auto;html=1;endArrow=open;endFill=0;" edge="1" parent="4" source="7nI64X__2j-Hu28zdMV8-100" target="7nI64X__2j-Hu28zdMV8-104">
          <mxGeometry relative="1" as="geometry" />
        </mxCell>
        <mxCell id="7nI64X__2j-Hu28zdMV8-100" value="" style="line;strokeWidth=4;html=1;perimeter=backbonePerimeter;points=[];outlineConnect=0;" vertex="1" parent="4">
          <mxGeometry x="22.5" y="608" width="145" height="22" as="geometry" />
        </mxCell>
        <mxCell id="7nI64X__2j-Hu28zdMV8-107" style="edgeStyle=orthogonalEdgeStyle;rounded=0;orthogonalLoop=1;jettySize=auto;html=1;entryX=0.5;entryY=0;entryDx=0;entryDy=0;endArrow=open;endFill=0;" edge="1" parent="4" source="7nI64X__2j-Hu28zdMV8-104" target="7nI64X__2j-Hu28zdMV8-106">
          <mxGeometry relative="1" as="geometry" />
        </mxCell>
        <mxCell id="7nI64X__2j-Hu28zdMV8-104" value="Gesamtbewertung generieren" style="rounded=1;whiteSpace=wrap;html=1;" vertex="1" parent="4">
          <mxGeometry x="35" y="668" width="120" height="60" as="geometry" />
        </mxCell>
        <mxCell id="7nI64X__2j-Hu28zdMV8-122" style="edgeStyle=orthogonalEdgeStyle;rounded=0;orthogonalLoop=1;jettySize=auto;html=1;" edge="1" parent="4" source="7nI64X__2j-Hu28zdMV8-106" target="7nI64X__2j-Hu28zdMV8-121">
          <mxGeometry relative="1" as="geometry" />
        </mxCell>
        <mxCell id="7nI64X__2j-Hu28zdMV8-106" value="" style="rhombus;whiteSpace=wrap;html=1;" vertex="1" parent="4">
          <mxGeometry x="70" y="768" width="50" height="50" as="geometry" />
        </mxCell>
        <mxCell id="7nI64X__2j-Hu28zdMV8-119" value="[kritische&lt;div&gt;&amp;nbsp;Fehler]&lt;/div&gt;" style="text;html=1;align=center;verticalAlign=middle;resizable=0;points=[];autosize=1;strokeColor=none;fillColor=none;" vertex="1" parent="4">
          <mxGeometry y="758" width="70" height="40" as="geometry" />
        </mxCell>
        <mxCell id="7nI64X__2j-Hu28zdMV8-120" value="[weniger&lt;div&gt;&amp;nbsp;kritische&amp;nbsp;&lt;span style=&quot;background-color: transparent; color: light-dark(rgb(0, 0, 0), rgb(255, 255, 255));&quot;&gt;Fehler]&lt;/span&gt;&lt;/div&gt;" style="text;html=1;align=center;verticalAlign=middle;resizable=0;points=[];autosize=1;strokeColor=none;fillColor=none;" vertex="1" parent="4">
          <mxGeometry x="-5" y="848" width="110" height="40" as="geometry" />
        </mxCell>
        <mxCell id="7nI64X__2j-Hu28zdMV8-121" value="Abnahme vorbereiten" style="rounded=1;whiteSpace=wrap;html=1;" vertex="1" parent="4">
          <mxGeometry x="35" y="988" width="120" height="60" as="geometry" />
        </mxCell>
        <mxCell id="7nI64X__2j-Hu28zdMV8-123" value="[keine Fehler&lt;span style=&quot;background-color: transparent; color: light-dark(rgb(0, 0, 0), rgb(255, 255, 255));&quot;&gt;]&lt;/span&gt;" style="text;html=1;align=center;verticalAlign=middle;resizable=0;points=[];autosize=1;strokeColor=none;fillColor=none;" vertex="1" parent="4">
          <mxGeometry x="90" y="938" width="100" height="30" as="geometry" />
        </mxCell>
        <mxCell id="7nI64X__2j-Hu28zdMV8-53" value="Projektleiter (Kunde)" style="swimlane;whiteSpace=wrap;startSize=23;" vertex="1" parent="2">
          <mxGeometry x="350" y="22" width="190" height="1358" as="geometry" />
        </mxCell>
        <mxCell id="7nI64X__2j-Hu28zdMV8-96" style="edgeStyle=orthogonalEdgeStyle;rounded=0;orthogonalLoop=1;jettySize=auto;html=1;entryX=0.5;entryY=0;entryDx=0;entryDy=0;endArrow=open;endFill=0;" edge="1" parent="7nI64X__2j-Hu28zdMV8-53" source="7nI64X__2j-Hu28zdMV8-84" target="7nI64X__2j-Hu28zdMV8-95">
          <mxGeometry relative="1" as="geometry" />
        </mxCell>
        <mxCell id="7nI64X__2j-Hu28zdMV8-84" value="Review durchf端hren" style="rounded=1;whiteSpace=wrap;html=1;" vertex="1" parent="7nI64X__2j-Hu28zdMV8-53">
          <mxGeometry x="35" y="388" width="120" height="60" as="geometry" />
        </mxCell>
        <mxCell id="7nI64X__2j-Hu28zdMV8-95" value="Anmerkungen" style="rounded=0;whiteSpace=wrap;html=1;" vertex="1" parent="7nI64X__2j-Hu28zdMV8-53">
          <mxGeometry x="35" y="478" width="120" height="60" as="geometry" />
        </mxCell>
        <mxCell id="7nI64X__2j-Hu28zdMV8-55" value="IT-Leiterin" style="swimlane;whiteSpace=wrap;startSize=23;" vertex="1" parent="2">
          <mxGeometry x="540" y="22" width="200" height="1358" as="geometry" />
        </mxCell>
        <mxCell id="7nI64X__2j-Hu28zdMV8-97" style="edgeStyle=orthogonalEdgeStyle;rounded=0;orthogonalLoop=1;jettySize=auto;html=1;exitX=0.5;exitY=1;exitDx=0;exitDy=0;entryX=0.5;entryY=0;entryDx=0;entryDy=0;endArrow=open;endFill=0;" edge="1" parent="7nI64X__2j-Hu28zdMV8-55" source="7nI64X__2j-Hu28zdMV8-65" target="7nI64X__2j-Hu28zdMV8-94">
          <mxGeometry relative="1" as="geometry" />
        </mxCell>
        <mxCell id="7nI64X__2j-Hu28zdMV8-65" value="Review durchf端hren" style="rounded=1;whiteSpace=wrap;html=1;" vertex="1" parent="7nI64X__2j-Hu28zdMV8-55">
          <mxGeometry x="40" y="388" width="120" height="60" as="geometry" />
        </mxCell>
        <mxCell id="7nI64X__2j-Hu28zdMV8-94" value="Anmerkungen" style="rounded=0;whiteSpace=wrap;html=1;" vertex="1" parent="7nI64X__2j-Hu28zdMV8-55">
          <mxGeometry x="40" y="478" width="120" height="60" as="geometry" />
        </mxCell>
        <mxCell id="7nI64X__2j-Hu28zdMV8-57" style="edgeStyle=orthogonalEdgeStyle;rounded=0;orthogonalLoop=1;jettySize=auto;html=1;entryX=0;entryY=0.5;entryDx=0;entryDy=0;endArrow=open;endFill=0;" edge="1" parent="2" source="7nI64X__2j-Hu28zdMV8-51" target="7nI64X__2j-Hu28zdMV8-52">
          <mxGeometry relative="1" as="geometry" />
        </mxCell>
        <mxCell id="7nI64X__2j-Hu28zdMV8-90" value="" style="edgeStyle=orthogonalEdgeStyle;rounded=0;orthogonalLoop=1;jettySize=auto;html=1;endArrow=open;endFill=0;entryX=0.537;entryY=-0.013;entryDx=0;entryDy=0;entryPerimeter=0;" edge="1" parent="2" source="7nI64X__2j-Hu28zdMV8-63" target="7nI64X__2j-Hu28zdMV8-84">
          <mxGeometry relative="1" as="geometry">
            <mxPoint x="220" y="340" as="sourcePoint" />
            <mxPoint x="220" y="383" as="targetPoint" />
            <Array as="points">
              <mxPoint x="255" y="360" />
              <mxPoint x="449" y="360" />
              <mxPoint x="449" y="409" />
            </Array>
          </mxGeometry>
        </mxCell>
        <mxCell id="7nI64X__2j-Hu28zdMV8-92" value="" style="edgeStyle=orthogonalEdgeStyle;rounded=0;orthogonalLoop=1;jettySize=auto;html=1;endArrow=open;endFill=0;entryX=0.5;entryY=0;entryDx=0;entryDy=0;" edge="1" parent="2" source="7nI64X__2j-Hu28zdMV8-63" target="7nI64X__2j-Hu28zdMV8-65">
          <mxGeometry relative="1" as="geometry">
            <mxPoint x="210" y="340" as="sourcePoint" />
            <mxPoint x="404" y="413" as="targetPoint" />
            <Array as="points">
              <mxPoint x="210" y="364" />
              <mxPoint x="640" y="364" />
            </Array>
          </mxGeometry>
        </mxCell>
        <mxCell id="7nI64X__2j-Hu28zdMV8-101" style="edgeStyle=orthogonalEdgeStyle;rounded=0;orthogonalLoop=1;jettySize=auto;html=1;endArrow=open;endFill=0;" edge="1" parent="2" source="7nI64X__2j-Hu28zdMV8-95" target="7nI64X__2j-Hu28zdMV8-100">
          <mxGeometry relative="1" as="geometry">
            <Array as="points">
              <mxPoint x="445" y="580" />
              <mxPoint x="210" y="580" />
            </Array>
          </mxGeometry>
        </mxCell>
        <mxCell id="7nI64X__2j-Hu28zdMV8-102" style="edgeStyle=orthogonalEdgeStyle;rounded=0;orthogonalLoop=1;jettySize=auto;html=1;endArrow=open;endFill=0;" edge="1" parent="2" source="7nI64X__2j-Hu28zdMV8-94" target="7nI64X__2j-Hu28zdMV8-100">
          <mxGeometry relative="1" as="geometry">
            <Array as="points">
              <mxPoint x="640" y="600" />
              <mxPoint x="255" y="600" />
            </Array>
          </mxGeometry>
        </mxCell>
        <mxCell id="7nI64X__2j-Hu28zdMV8-115" style="edgeStyle=orthogonalEdgeStyle;rounded=0;orthogonalLoop=1;jettySize=auto;html=1;entryX=0.5;entryY=1;entryDx=0;entryDy=0;endArrow=open;endFill=0;" edge="1" parent="2" source="7nI64X__2j-Hu28zdMV8-106" target="7nI64X__2j-Hu28zdMV8-114">
          <mxGeometry relative="1" as="geometry" />
        </mxCell>
        <mxCell id="7nI64X__2j-Hu28zdMV8-118" style="edgeStyle=orthogonalEdgeStyle;rounded=0;orthogonalLoop=1;jettySize=auto;html=1;exitX=0.5;exitY=1;exitDx=0;exitDy=0;entryX=0.5;entryY=0;entryDx=0;entryDy=0;endArrow=open;endFill=0;" edge="1" parent="2" source="7nI64X__2j-Hu28zdMV8-106" target="7nI64X__2j-Hu28zdMV8-117">
          <mxGeometry relative="1" as="geometry" />
        </mxCell>
        <mxCell id="7nI64X__2j-Hu28zdMV8-124" style="edgeStyle=orthogonalEdgeStyle;rounded=0;orthogonalLoop=1;jettySize=auto;html=1;entryX=0.25;entryY=0;entryDx=0;entryDy=0;" edge="1" parent="2" source="7nI64X__2j-Hu28zdMV8-117" target="7nI64X__2j-Hu28zdMV8-121">
          <mxGeometry relative="1" as="geometry">
            <Array as="points">
              <mxPoint x="80" y="980" />
              <mxPoint x="225" y="980" />
            </Array>
          </mxGeometry>
        </mxCell>
        <mxCell id="7nI64X__2j-Hu28zdMV8-67" value="Extern" style="swimlane;whiteSpace=wrap" vertex="1" parent="1">
          <mxGeometry x="890" y="130" width="160" height="1380" as="geometry" />
        </mxCell>
        <mxCell id="7nI64X__2j-Hu28zdMV8-68" value="Gutachter" style="swimlane;whiteSpace=wrap;startSize=23;" vertex="1" parent="7nI64X__2j-Hu28zdMV8-67">
          <mxGeometry y="22" width="160" height="1358" as="geometry" />
        </mxCell>
        <mxCell id="7nI64X__2j-Hu28zdMV8-98" style="edgeStyle=orthogonalEdgeStyle;rounded=0;orthogonalLoop=1;jettySize=auto;html=1;exitX=0.5;exitY=1;exitDx=0;exitDy=0;endArrow=open;endFill=0;" edge="1" parent="7nI64X__2j-Hu28zdMV8-68" source="7nI64X__2j-Hu28zdMV8-83" target="7nI64X__2j-Hu28zdMV8-93">
          <mxGeometry relative="1" as="geometry" />
        </mxCell>
        <mxCell id="7nI64X__2j-Hu28zdMV8-83" value="Review durchf端hren" style="rounded=1;whiteSpace=wrap;html=1;" vertex="1" parent="7nI64X__2j-Hu28zdMV8-68">
          <mxGeometry x="20" y="388" width="120" height="60" as="geometry" />
        </mxCell>
        <mxCell id="7nI64X__2j-Hu28zdMV8-93" value="Anmerkungen" style="rounded=0;whiteSpace=wrap;html=1;" vertex="1" parent="7nI64X__2j-Hu28zdMV8-68">
          <mxGeometry x="20" y="478" width="120" height="60" as="geometry" />
        </mxCell>
        <mxCell id="7nI64X__2j-Hu28zdMV8-91" value="" style="edgeStyle=orthogonalEdgeStyle;rounded=0;orthogonalLoop=1;jettySize=auto;html=1;endArrow=open;endFill=0;" edge="1" parent="1" source="7nI64X__2j-Hu28zdMV8-63" target="7nI64X__2j-Hu28zdMV8-83">
          <mxGeometry relative="1" as="geometry">
            <mxPoint x="450" y="470" as="sourcePoint" />
            <mxPoint x="644" y="533" as="targetPoint" />
            <Array as="points">
              <mxPoint x="450" y="484" />
              <mxPoint x="970" y="484" />
            </Array>
          </mxGeometry>
        </mxCell>
        <mxCell id="7nI64X__2j-Hu28zdMV8-103" style="edgeStyle=orthogonalEdgeStyle;rounded=0;orthogonalLoop=1;jettySize=auto;html=1;exitX=0.5;exitY=1;exitDx=0;exitDy=0;endArrow=open;endFill=0;" edge="1" parent="1" source="7nI64X__2j-Hu28zdMV8-93" target="7nI64X__2j-Hu28zdMV8-100">
          <mxGeometry relative="1" as="geometry">
            <mxPoint x="480" y="750" as="targetPoint" />
            <Array as="points">
              <mxPoint x="970" y="740" />
              <mxPoint x="430" y="740" />
            </Array>
          </mxGeometry>
        </mxCell>
        <mxCell id="7nI64X__2j-Hu28zdMV8-126" value="&lt;h1 style=&quot;margin-top: 0px;&quot;&gt;&lt;font style=&quot;font-size: 16px;&quot;&gt;Abnahme eines Fachkonzepts&lt;/font&gt;&lt;/h1&gt;" style="text;html=1;whiteSpace=wrap;overflow=hidden;rounded=0;" vertex="1" parent="1">
          <mxGeometry x="140" y="60" width="240" height="40" as="geometry" />
        </mxCell>
      </root>
    </mxGraphModel>
  </diagram>
</mxfile>
